<svg id="Capa_1" data-name="Capa 1" xmlns="http://www.w3.org/2000/svg" viewBox="0 0 498.38 498.38"><defs><style>.cls-1{fill:#c7cbd1;stroke:#bdbec1;stroke-miterlimit:10;stroke-width:5px;}.cls-2{fill:#f2f3f4;}</style></defs><title>no-user2</title><circle class="cls-1" cx="249.19" cy="249.19" r="246.69"/><path class="cls-2" d="M182.57,396.12,109,436.27a66.65,66.65,0,0,0-11.81,8.41,246.55,246.55,0,0,0,316.77.81,66.32,66.32,0,0,0-13-8.7l-78.81-39.4a30.07,30.07,0,0,1-16.62-26.89V339.57A121.13,121.13,0,0,0,313,330a181,181,0,0,0,24.5-49.37A24.74,24.74,0,0,0,355,257.06v-33a24.57,24.57,0,0,0-8.25-18.29V158s9.8-74.26-90.76-74.26S165.24,158,165.24,158v47.72A24.61,24.61,0,0,0,157,224.05v33a24.78,24.78,0,0,0,11.41,20.77,163.71,163.71,0,0,0,29.85,61.74v30.16A30.06,30.06,0,0,1,182.57,396.12Z" transform="translate(-6.81 -6.81)"/></svg>