<?xml version="1.0" encoding="utf-8"?>
<!-- Generator: Adobe Illustrator 19.0.0, SVG Export Plug-In . SVG Version: 6.00 Build 0)  -->
<svg version="1.1" id="Layer_1" xmlns="http://www.w3.org/2000/svg" xmlns:xlink="http://www.w3.org/1999/xlink" x="0px" y="0px"
	 viewBox="0 0 96 96" style="enable-background:new 0 0 96 96;" xml:space="preserve">
<style type="text/css">
	.st0{fill:#333333;}
</style>
<g id="XMLID_2_">
	<path id="XMLID_6_" class="st0" d="M75.5,67.9c0,3.1-1,5.6-2.9,7.4S68.2,78,65.1,78H30.9c-3.2,0-5.7-0.9-7.6-2.7
		c-1.9-1.8-2.9-4.3-2.9-7.4c0-1.4,0-2.7,0.1-4s0.3-2.7,0.5-4.3s0.6-2.9,1-4.2s1-2.6,1.7-3.8s1.5-2.3,2.4-3.2s2-1.6,3.3-2.1
		s2.8-0.8,4.4-0.8c0.2,0,0.8,0.3,1.6,0.8s1.8,1.2,2.9,1.9s2.5,1.3,4.2,1.9s3.5,0.8,5.2,0.8s3.5-0.3,5.2-0.8c1.7-0.6,3.1-1.2,4.2-1.9
		s2.1-1.3,2.9-1.9s1.4-0.8,1.6-0.8c1.6,0,3,0.3,4.4,0.8s2.4,1.2,3.3,2.1s1.7,1.9,2.4,3.2s1.3,2.5,1.7,3.8s0.8,2.7,1,4.2
		s0.5,2.9,0.5,4.3S75.5,66.5,75.5,67.9z M63,33c0,4.1-1.5,7.7-4.4,10.6S52.1,48,48,48s-7.7-1.5-10.6-4.4S33,37.1,33,33
		s1.5-7.7,4.4-10.6S43.9,18,48,18s7.7,1.5,10.6,4.4S63,28.9,63,33z"/>
</g>
</svg>
