<svg id="Capa_1" data-name="Capa 1" xmlns="http://www.w3.org/2000/svg" viewBox="0 0 514.5 410.8"><defs><style>.cls-1,.cls-2,.cls-3{stroke:#000;stroke-miterlimit:10;}.cls-1{stroke-width:5px;}.cls-2{stroke-width:4px;}.cls-3{stroke-width:3px;}</style></defs><title>add-contact2</title><path class="cls-1" d="M129.38,190.49a68.82,68.82,0,1,0-68.82-68.82A68.89,68.89,0,0,0,129.38,190.49Zm0-121.12a52.3,52.3,0,1,1-52.3,52.3A52.36,52.36,0,0,1,129.38,69.37Z" transform="translate(2.5 -50.35)"/><path class="cls-1" d="M311.05,190.49a68.82,68.82,0,1,0-68.81-68.82A68.89,68.89,0,0,0,311.05,190.49Zm0-121.12a52.3,52.3,0,1,1-52.3,52.3A52.36,52.36,0,0,1,311.05,69.37Z" transform="translate(2.5 -50.35)"/><path class="cls-1" d="M400.41,282.85a8.26,8.26,0,0,0,13.07-10.1,129.42,129.42,0,0,0-174.77-28.23A8.26,8.26,0,1,0,248,258.2a112.88,112.88,0,0,1,152.45,24.65Z" transform="translate(2.5 -50.35)"/><path class="cls-1" d="M129.38,222.42C58,222.42,0,280.45,0,351.79a8.26,8.26,0,0,0,16.52,0,112.86,112.86,0,0,1,225.72,0,8.26,8.26,0,1,0,16.51,0A129.51,129.51,0,0,0,129.38,222.42Z" transform="translate(2.5 -50.35)"/><path class="cls-2" d="M430.17,299.49A79.83,79.83,0,1,0,510,379.32,79.92,79.92,0,0,0,430.17,299.49Zm0,143.14a63.31,63.31,0,1,1,63.31-63.31A63.38,63.38,0,0,1,430.17,442.63Z" transform="translate(2.5 -50.35)"/><path class="cls-3" d="M457.7,371.06H438.43V351.79a8.26,8.26,0,0,0-16.52,0v19.27H402.65a8.26,8.26,0,0,0,0,16.52h19.26v19.27a8.26,8.26,0,0,0,16.52,0V387.58H457.7a8.26,8.26,0,0,0,0-16.52Z" transform="translate(2.5 -50.35)"/></svg>