<svg height="511pt" viewBox="0 -21 511.81339 511" width="511pt" xmlns="http://www.w3.org/2000/svg"><path d="m255.90625 427.089844c-110.742188 0-209.171875-64.832032-250.730469-165.183594-6.890625-17.089844-6.890625-36.542969-.0625-53.503906 13.523438-33.023438 34.453125-63.617188 60.542969-88.554688 6.378906-6.101562 16.53125-5.867187 22.613281.511719 6.101563 6.378906 5.886719 16.511719-.511719 22.613281-22.871093 21.867188-41.195312 48.660156-52.992187 77.480469-3.734375 9.28125-3.734375 20.011719.042969 29.355469 36.523437 88.191406 123.328125 145.28125 221.097656 145.28125 27.5 0 54.570312-4.652344 80.425781-13.804688 8.386719-2.921875 17.472657 1.410156 20.4375 9.75 2.945313 8.34375-1.40625 17.472656-9.75 20.4375-29.308593 10.347656-59.964843 15.617188-91.113281 15.617188zm0 0"/><path d="m249.316406 319.996094c-.492187 0-.984375-.019532-1.472656-.0625-40.789062-3.714844-73.066406-36.011719-76.78125-76.78125-.808594-8.808594 5.699219-16.574219 14.488281-17.386719 8.660157-.875 16.574219 5.675781 17.386719 14.488281 2.261719 24.980469 22.824219 45.523438 47.804688 47.804688 8.8125.8125 15.296874 8.578125 14.488281 17.386718-.769531 8.320313-7.746094 14.550782-15.914063 14.550782zm0 0"/><path d="m474.574219 469.757812c-4.097657 0-8.191407-1.558593-11.308594-4.695312l-437.332031-437.332031c-6.25-6.25-6.25-16.386719 0-22.636719s16.382812-6.25 22.632812 0l437.335938 437.335938c6.25 6.25 6.25 16.382812 0 22.632812-3.136719 3.136719-7.234375 4.695312-11.328125 4.695312zm0 0"/><path d="m392.675781 387.835938c-5.355469 0-10.605469-2.6875-13.632812-7.59375-4.628907-7.53125-2.28125-17.367188 5.226562-22.015626 41.878907-25.816406 73.984375-63.359374 92.820313-108.585937 3.691406-9.175781 3.691406-19.90625-.0625-29.269531-36.542969-88.195313-123.351563-145.28125-221.121094-145.28125-45.929688 0-90.238281 12.714844-128.171875 36.757812-7.488281 4.714844-17.34375 2.539063-22.078125-4.929687-4.734375-7.464844-2.515625-17.34375 4.929688-22.078125 43.070312-27.308594 93.308593-41.75 145.320312-41.75 110.742188 0 209.171875 64.832031 250.730469 165.183594 6.890625 17.089843 6.890625 36.542968.066406 53.503906-21.527344 51.625-58.027344 94.335937-105.644531 123.691406-2.625 1.597656-5.523438 2.367188-8.382813 2.367188zm0 0"/><path d="m304.972656 300.15625c-4.050781 0-8.105468-1.535156-11.21875-4.585938-6.296875-6.207031-6.378906-16.320312-.195312-22.636718 10.113281-10.28125 15.679687-23.722656 15.679687-37.84375 0-29.398438-23.933593-53.332032-53.332031-53.332032-14.121094 0-27.5625 5.566407-37.84375 15.679688-6.273438 6.207031-16.40625 6.140625-22.636719-.195312-6.207031-6.292969-6.121093-16.425782.191407-22.632813 16.300781-16.019531 37.71875-24.851563 60.289062-24.851563 47.0625 0 85.332031 38.269532 85.332031 85.332032 0 22.570312-8.832031 43.988281-24.871093 60.289062-3.117188 3.175782-7.253907 4.777344-11.394532 4.777344zm0 0"/></svg>