<?xml version="1.0" encoding="iso-8859-1"?>
<!-- Generator: Adobe Illustrator 19.0.0, SVG Export Plug-In . SVG Version: 6.00 Build 0)  -->
<svg version="1.1" id="Capa_1" xmlns="http://www.w3.org/2000/svg" xmlns:xlink="http://www.w3.org/1999/xlink" x="0px" y="0px"
	 viewBox="0 0 416 416" style="enable-background:new 0 0 416 416;" xml:space="preserve">
<path style="fill:#4DCFE0;" d="M392.686,160L215.053,2.743c-4.18-3.657-9.927-3.657-14.106,0L23.314,160
	c-2.09,2.09-3.657,4.702-3.657,7.837v237.714c0,5.747,4.702,10.449,10.449,10.449h119.641V272.327
	c0-5.747,4.702-10.449,10.449-10.449h95.086c5.747,0,10.449,4.702,10.449,10.449V416h120.163c5.747,0,10.449-4.702,10.449-10.449
	V167.837C396.343,164.702,395.298,162.09,392.686,160z"/>
<path style="fill:#D4E1F4;" d="M261.029,256.653H155.494c-5.747,0-10.449,4.702-10.449,10.449V416h126.433V267.102
	C271.478,261.355,266.776,256.653,261.029,256.653z"/>
<g>
</g>
<g>
</g>
<g>
</g>
<g>
</g>
<g>
</g>
<g>
</g>
<g>
</g>
<g>
</g>
<g>
</g>
<g>
</g>
<g>
</g>
<g>
</g>
<g>
</g>
<g>
</g>
<g>
</g>
</svg>
