<?xml version="1.0" encoding="utf-8"?>
<!-- Svg Vector Icons : http://www.onlinewebfonts.com/icon -->
<!DOCTYPE svg PUBLIC "-//W3C//DTD SVG 1.1//EN" "http://www.w3.org/Graphics/SVG/1.1/DTD/svg11.dtd">
<svg version="1.1" xmlns="http://www.w3.org/2000/svg" xmlns:xlink="http://www.w3.org/1999/xlink" x="0px" y="0px" viewBox="0 0 1000 1000" enable-background="new 0 0 1000 1000" xml:space="preserve">
<metadata> Svg Vector Icons : http://www.onlinewebfonts.com/icon </metadata>
<g><path d="M989.9,745.8H799.8c0-206.9-103.4-108.6-103.4-289.9c0-65.5,42.9-101,97.9-101c81.3,0,137.9,77.6,60.9,222.8c-25.3,47.7,26.9,59,83,72C994.2,662.6,989.9,692.2,989.9,745.8z M61.8,649.7c56.1-12.9,108.3-24.3,83-72c-77-145.2-20.4-222.8,60.9-222.8c55,0,97.9,35.5,97.9,101c0,181.3-103.4,83-103.4,289.9H10.1C10.1,692.2,5.8,662.6,61.8,649.7z M681.1,624.9c-70.6-16.3-136.3-30.5-104.5-90.5c96.8-182.6,25.7-280.2-76.6-280.2c-104.3,0-173.7,101.4-76.6,280.2c32.8,60.3-35.4,74.6-104.5,90.5c-70.5,16.3-65.1,53.5-65.1,121h492.3C746.2,678.4,751.6,641.2,681.1,624.9z"/></g>
</svg>