<?xml version="1.0" encoding="utf-8"?>
<!-- Svg Vector Icons : http://www.onlinewebfonts.com/icon -->
<!DOCTYPE svg PUBLIC "-//W3C//DTD SVG 1.1//EN" "http://www.w3.org/Graphics/SVG/1.1/DTD/svg11.dtd">
<svg version="1.1" xmlns="http://www.w3.org/2000/svg" xmlns:xlink="http://www.w3.org/1999/xlink" x="0px" y="0px" viewBox="0 0 1000 1000" enable-background="new 0 0 1000 1000" xml:space="preserve">
<metadata> Svg Vector Icons : http://www.onlinewebfonts.com/icon </metadata>
<g><g transform="translate(0.000000,511.000000) scale(0.100000,-0.100000)"><path d="M7727,4554.7v-454.3h-454.3h-454.3v-602.5v-602.5h454.3H7727V2441v-454.3h602.5H8932V2441v454.3h464.2h464.2v602.5v602.5h-464.2H8932v454.3V5009h-602.5H7727V4554.7z M8616,4238.6v-454.3h464.2h464.2v-286.4v-286.4h-464.2H8616v-454.3v-454.3h-286.4h-286.4v454.3v454.3h-454.3h-454.3v286.4v286.4h454.3h454.3v454.3v454.3h286.4H8616V4238.6z"/><path d="M3154,4949.8c-294.3-77-523.5-215.3-734.9-442.5c-162-175.8-250.9-320-324-525.5c-84.9-241-102.7-428.7-90.9-1043c9.9-626.2,23.7-701.3,162-981.8c286.4-574.8,926.5-930.4,1519.1-839.5c531.4,81,962,405,1185.2,892.9c118.5,256.8,130.4,355.6,130.4,1048.9c0,553.1-4,636.1-39.5,776.3c-136.3,537.3-570.9,979.8-1098.3,1114.1C3661.7,5001.1,3347.6,5001.1,3154,4949.8z M3780.2,4651.5c296.3-61.2,606.4-288.4,752.6-553.1c136.3-243,152.1-355.6,152.1-1045c0-539.3-4-622.3-39.5-758.6c-134.3-525.5-566.9-861.3-1116.1-867.2c-493.9-5.9-885,229.1-1084.5,647.9c-114.6,237.1-120.5,290.4-120.5,997.6l2,642l53.3,158c126.4,379.3,410.9,651.9,794.1,762.5C3312,4675.2,3622.2,4685,3780.2,4651.5z"/><path d="M6221.8,1808.9c-460.3-83-851.4-381.3-1066.7-806C5024.7,742.1,5010.9,637.4,5010.9-48c0-568.9,2-610.4,45.4-760.5c252.9-873.1,1193.2-1317.6,1985.3-940.3c379.3,181.7,693.4,565,794.1,969.9c43.5,167.9,63.2,993.6,31.6,1274.1c-47.4,432.6-237.1,776.3-565,1027.2c-163.9,124.4-286.4,187.7-474.1,245C6672.2,1816.8,6370,1836.5,6221.8,1808.9z M6690,1482.9c387.2-81,687.5-351.6,813.9-730.9c53.3-156.1,53.3-162,53.3-760.5c2-444.5-5.9-630.2-25.7-711.2c-126.4-513.6-555.1-849.4-1088.4-849.4c-517.5,0-942.2,318-1080.5,809.9c-31.6,112.6-35.6,205.4-35.6,740.8c2,612.4,2,612.4,55.3,772.4C5564,1301.2,6109.2,1605.4,6690,1482.9z"/><path d="M1642.8,979.2C1071.9,910,566.2,621.6,295.6,210.7C115.8-63.8,113.8-77.7,105.9-1000.2l-5.9-806h1570.4h1572.4v158v158H1830.5H418v588.7c0,632.1,9.9,719.1,106.7,908.7c69.1,138.3,219.3,294.3,383.2,401c158,102.7,284.5,156.1,527.4,219.3C1587.5,669,1646.8,671,2992,676.9l1396.6,7.9v158v156.1l-1307.7-2C2359.9,995,1713.9,987.1,1642.8,979.2z"/><path d="M4513.1-2033.3c-403-73.1-770.4-260.8-1031.2-525.4c-146.2-148.2-241-292.4-316.1-487.9l-51.4-132.4l-5.9-804l-5.9-806h3397.7H9900v736.8c0,809.9-7.9,896.8-106.7,1110.2c-215.3,458.3-713.1,804-1313.6,908.7C8250.5-1991.8,4734.3-1991.8,4513.1-2033.3z M8487.6-2349.4c430.7-75.1,804-306.2,975.9-608.4c108.6-191.6,120.5-276.6,120.5-926.5v-588.7H6502.3H3420.7v588.7c0,331.9,9.9,624.2,21.7,675.6c94.8,416.8,519.5,760.5,1058.8,857.3C4738.3-2307.9,8240.7-2307.9,8487.6-2349.4z"/></g></g>
</svg>