<?xml version="1.0" encoding="iso-8859-1"?>
<!-- Generator: Adobe Illustrator 16.0.0, SVG Export Plug-In . SVG Version: 6.00 Build 0)  -->
<!DOCTYPE svg PUBLIC "-//W3C//DTD SVG 1.1//EN" "http://www.w3.org/Graphics/SVG/1.1/DTD/svg11.dtd">
<svg version="1.1" id="Capa_1" xmlns="http://www.w3.org/2000/svg" xmlns:xlink="http://www.w3.org/1999/xlink" x="0px" y="0px"
	 width="792px" height="792px" viewBox="0 0 792 792" style="enable-background:new 0 0 792 792;" xml:space="preserve">
<g>
	<g id="Shape_16_copy">
		<g>
			<path d="M424.91,668.307l55.674-123.896c112.713-35.802,194.385-141.195,194.385-265.666C674.963,124.799,550.07,0,395.994,0
				C241.929,0,117.031,124.799,117.031,278.744c0,127.389,85.559,234.747,202.371,268.021l57.404,121.187
				c-0.772,0.049-1.56,0.07-2.327,0.131c0.783-0.017,1.593-0.011,2.376-0.027l24.716,52.182l23.097-51.398
				c60.219,6.125,105.311,29.703,105.311,43.537c0,16.002-60.186,28.96-134.423,28.96c-74.238,0-134.429-12.958-134.429-28.96
				c0-14.446,49.127-39.574,113.353-44.293c-104.38,2.271-186.271,21.252-185.734,44.293C189.868,759.806,281.339,792,395.557,792
				c114.217,0,207.917-33.29,206.8-79.625C601.814,689.946,525.13,671.378,424.91,668.307z M393.389,477.596
				c-109.433,0-198.145-88.636-198.145-197.998c0-109.334,88.712-197.975,198.145-197.975c109.433,0,198.14,88.641,198.14,197.975
				C591.533,388.96,502.821,477.596,393.389,477.596z M398.228,188.652c-49.23,0-89.139,39.881-89.139,89.074
				s39.909,89.079,89.139,89.079c49.231,0,89.14-39.886,89.14-89.079S447.459,188.652,398.228,188.652z"/>
		</g>
	</g>
</g>
<g>
</g>
<g>
</g>
<g>
</g>
<g>
</g>
<g>
</g>
<g>
</g>
<g>
</g>
<g>
</g>
<g>
</g>
<g>
</g>
<g>
</g>
<g>
</g>
<g>
</g>
<g>
</g>
<g>
</g>
</svg>
