<svg id="Capa_1" data-name="Capa 1" xmlns="http://www.w3.org/2000/svg" viewBox="0 0 264.94 264.94"><defs><style>.cls-1{fill:#13bf5d;}.cls-2{fill:#f7c10f;}.cls-3{fill:#fff;}</style></defs><title>Artboard 13</title><path class="cls-1" d="M203.3,70.79a70.5,70.5,0,0,1-4.56,24.84C189.45,123.2,128,264.94,128,264.94S70.14,110.4,65.12,92.68A70.82,70.82,0,1,1,203.3,70.79Z"/><path id="Wheat" class="cls-2" d="M151.24,23.31s.74,5.88-2.45,9.79-9.11,4.35-9.11,4.35-.74-5.89,2.45-9.79S151.24,23.31,151.24,23.31Zm-18.9,1.59s4.86,3.4,5.6,8.39S135,43,135,43s-4.85-3.4-5.6-8.39,2.94-9.71,2.94-9.71ZM153.21,42s-4.29-4.07-9.32-3.8S135,42.92,135,42.92s4.3,4.07,9.32,3.8S153.21,42,153.21,42Zm-7.38,9.53s-4.07-4.29-9.1-4.29-9.13,4.29-9.13,4.29,4.07,4.29,9.1,4.29,9.13-4.34,9.13-4.34Zm-21.29-17.4s5,3.14,6,8.07-2.38,9.8-2.38,9.8-5-3.14-6-8.07,2.38-9.85,2.38-9.85ZM132.05,40s2.34,2.51-.13,6.88c0,0,3.76-3.16,6.31-1.69Zm-4.79,12.79a1.06,1.06,0,0,1,.15,1.49l-3.87,4.66a1.06,1.06,0,1,1-1.65-1.34h0l3.87-4.66a1.05,1.05,0,0,1,1.49-.16Z"/><path id="logo" class="cls-3" d="M77.68,81.12H95a2,2,0,0,1,0,4H77.68a2,2,0,0,1,0-4ZM88.4,89.93h9.87a2,2,0,0,1,0,4H88.4a2,2,0,0,1,0-4Zm-5.18,8.81H102a2,2,0,0,1,0,4H83.22a2,2,0,0,1,0-4Zm88.05-42a4.47,4.47,0,0,0-3.54-1.06l-60.9,8.42-1.57-5A4.45,4.45,0,0,0,100.4,56l-9.92,1.37a4.45,4.45,0,0,0,1.22,8.82h0l6.19-.85,15,48.11a5.12,5.12,0,0,0,.27.52,3.78,3.78,0,0,0,.33.63,4.85,4.85,0,0,0,.64.72,5,5,0,0,0,.49.43,4,4,0,0,0,.93.46,3.56,3.56,0,0,0,2.2.33l48.48-6.71A4.46,4.46,0,0,0,165,101h0l-44.75,6.18-1.34-4.31L168.81,96a4.45,4.45,0,0,0,3.84-4.39l.14-31.48a4.51,4.51,0,0,0-1.52-3.38Zm-7.4,8.47v9l-15.7,2.17L147,67.56Zm-21.36,3L143.73,77,130.5,78.79,129.28,70Zm1.82,13.23,1.22,8.83L132.33,92l-1.22-8.82ZM124.88,70.58l1.22,8.82-13.23,1.83a2.06,2.06,0,0,0-.63.22l-2.73-8.75Zm-11.33,15,13.16-1.82,1.22,8.82-11.7,1.62Zm36.41,4-1.22-8.83,15.07-2.08v9ZM125,120a6.68,6.68,0,1,1-5.69,7.54h0A6.67,6.67,0,0,1,125,120Zm39.67-5.48a6.68,6.68,0,1,1-5.7,7.54h0a6.67,6.67,0,0,1,5.68-7.53h0Z"/></svg>