<svg id="Layer_1" xmlns="http://www.w3.org/2000/svg" viewBox="0 0 511 329"><defs><style>.cls-1{stroke:#000;stroke-miterlimit:10;stroke-width:6px;}</style></defs><title>chat</title><path class="cls-1" d="M507.67,97.18C505.52,94,501.16,92,496.38,92H16.62c-5.29,0-10,2.45-11.83,6.13s-.4,7.82,3.62,10.38l168.5,107.21.33,189.91c0,4,3.49,7.62,8.64,8.89a16.8,16.8,0,0,0,4,.48A14.5,14.5,0,0,0,200,411.24L506.49,107A7.48,7.48,0,0,0,507.67,97.18ZM50.78,110.76H441.15L191.46,200.28ZM202.15,217.29l253.11-90.75-252.82,251Z" transform="translate(-1 -89)"/></svg>