<?xml version="1.0" encoding="utf-8"?>
<!-- Svg Vector Icons : http://www.onlinewebfonts.com/icon -->
<!DOCTYPE svg PUBLIC "-//W3C//DTD SVG 1.1//EN" "http://www.w3.org/Graphics/SVG/1.1/DTD/svg11.dtd">
<svg version="1.1" xmlns="http://www.w3.org/2000/svg" xmlns:xlink="http://www.w3.org/1999/xlink" x="0px" y="0px" viewBox="0 0 1000 1000" enable-background="new 0 0 1000 1000" xml:space="preserve">
<metadata> Svg Vector Icons : http://www.onlinewebfonts.com/icon </metadata>
<g><path d="M836.9,316.2c-50.8,0-95.7-24.8-123.6-63L307.8,450.1c5.4,15.7,8.5,32.4,8.5,49.9c0,14-2.1,27.5-5.6,40.3l403.2,205.5c27.9-37.6,72.5-62.1,122.9-62.1c84.5,0,153.1,68.5,153.1,153.1c0,84.5-68.6,153.1-153.1,153.1c-84.5,0-153.1-68.5-153.1-153.1c0-12.3,1.6-24.2,4.3-35.6L283.1,594.9c-28,35.4-71.3,58.2-120,58.2C78.5,653.1,10,584.6,10,500c0-84.6,68.5-153.1,153.1-153.1c45,0,85.3,19.5,113.3,50.4l411.3-199.6c-2.6-11.1-4-22.6-4-34.5C683.7,78.6,752.3,10,836.9,10C921.4,10,990,78.6,990,163.2C990,247.7,921.4,316.2,836.9,316.2L836.9,316.2z M836.9,928.7c50.7,0,91.9-41.1,91.9-91.8c0-50.8-41.2-91.9-91.9-91.9c-50.8,0-91.9,41.1-91.9,91.9C745,887.6,786.1,928.7,836.9,928.7L836.9,928.7z M163.1,408.1c-50.8,0-91.9,41.1-91.9,91.9c0,50.7,41.1,91.8,91.9,91.8c50.7,0,91.8-41.1,91.8-91.8C255,449.3,213.9,408.1,163.1,408.1L163.1,408.1z M836.9,71.3c-50.8,0-91.9,41.1-91.9,91.9c0,50.7,41.1,91.8,91.9,91.8c50.7,0,91.9-41.1,91.9-91.8C928.8,112.4,887.6,71.3,836.9,71.3L836.9,71.3z"/></g>
</svg>