<?xml version="1.0" encoding="iso-8859-1"?>
<!-- Generator: Adobe Illustrator 18.0.0, SVG Export Plug-In . SVG Version: 6.00 Build 0)  -->
<!DOCTYPE svg PUBLIC "-//W3C//DTD SVG 1.1//EN" "http://www.w3.org/Graphics/SVG/1.1/DTD/svg11.dtd">
<svg version="1.1" id="Capa_1" xmlns="http://www.w3.org/2000/svg" xmlns:xlink="http://www.w3.org/1999/xlink" x="0px" y="0px"
	 viewBox="0 0 55.757 55.757" style="enable-background:new 0 0 55.757 55.757;" xml:space="preserve">
<g>
	<path d="M38.223,29.757c-7.168,0-13,5.832-13,13s5.832,13,13,13s13-5.832,13-13S45.392,29.757,38.223,29.757z M38.223,53.757
		c-6.065,0-11-4.935-11-11s4.935-11,11-11s11,4.935,11,11S44.289,53.757,38.223,53.757z"/>
	<path d="M43.173,37.808c-0.391-0.391-1.023-0.391-1.414,0l-3.536,3.535l-3.536-3.535c-0.391-0.391-1.023-0.391-1.414,0
		s-0.391,1.023,0,1.414l3.536,3.535l-3.536,3.535c-0.391,0.391-0.391,1.023,0,1.414c0.195,0.195,0.451,0.293,0.707,0.293
		s0.512-0.098,0.707-0.293l3.536-3.535l3.536,3.535c0.195,0.195,0.451,0.293,0.707,0.293s0.512-0.098,0.707-0.293
		c0.391-0.391,0.391-1.023,0-1.414l-3.536-3.535l3.536-3.535C43.563,38.831,43.563,38.198,43.173,37.808z"/>
	<path d="M38.534,26.757c1.129,0,2.23,0.121,3.294,0.345C44.164,19.8,42.54,10.887,37.27,5.617C33.648,1.995,28.833,0,23.711,0
		c-5.123,0-9.938,1.995-13.56,5.617c-6.703,6.702-7.536,19.312-1.804,26.952l15.363,22.188l1.85-2.672
		c-1.896-2.63-3.027-5.846-3.027-9.328C22.534,33.935,29.711,26.757,38.534,26.757z M16.888,19c0-3.859,3.141-7,7-7s7,3.141,7,7
		s-3.141,7-7,7S16.888,22.859,16.888,19z"/>
</g>
<g>
</g>
<g>
</g>
<g>
</g>
<g>
</g>
<g>
</g>
<g>
</g>
<g>
</g>
<g>
</g>
<g>
</g>
<g>
</g>
<g>
</g>
<g>
</g>
<g>
</g>
<g>
</g>
<g>
</g>
</svg>
