<?xml version="1.0" encoding="iso-8859-1"?>
<!-- Generator: Adobe Illustrator 19.0.0, SVG Export Plug-In . SVG Version: 6.00 Build 0)  -->
<svg version="1.1" id="Layer_1" xmlns="http://www.w3.org/2000/svg" xmlns:xlink="http://www.w3.org/1999/xlink" x="0px" y="0px"
	 viewBox="0 0 280.107 280.107" style="enable-background:new 0 0 280.107 280.107;" xml:space="preserve">
<g>
	<path style="fill:#51BBA8;" d="M140.049,0C79.677,0,30.725,47.412,30.725,105.903c0,1.138,0.543,28.353,9.941,47.762
		c26.926,60.162,99.287,126.782,99.383,126.441c0.123,0.228,72.177-66.025,99.235-126.082c8.033-14.238,10.098-45.802,10.098-48.13
		C249.391,47.412,200.43,0,140.049,0z M140.067,140.049c-16.933,0-30.628-13.704-30.628-30.619
		c0-16.924,13.695-30.637,30.628-30.637c16.924,0,30.628,13.713,30.628,30.637C170.695,126.345,156.991,140.049,140.067,140.049z"/>
	<path style="fill:#2B7D6E;" d="M140.067,61.3c-26.576,0-48.13,21.545-48.13,48.13c0,26.576,21.553,48.121,48.13,48.121
		s48.13-21.545,48.13-48.121C188.197,82.844,166.643,61.3,140.067,61.3z M140.067,140.049c-16.933,0-30.628-13.704-30.628-30.619
		c0-16.924,13.695-30.637,30.628-30.637c16.924,0,30.628,13.713,30.628,30.637C170.695,126.345,156.991,140.049,140.067,140.049z"/>
</g>
<g>
</g>
<g>
</g>
<g>
</g>
<g>
</g>
<g>
</g>
<g>
</g>
<g>
</g>
<g>
</g>
<g>
</g>
<g>
</g>
<g>
</g>
<g>
</g>
<g>
</g>
<g>
</g>
<g>
</g>
</svg>
