<svg height="512" viewBox="0 0 57 60" width="512" xmlns="http://www.w3.org/2000/svg"><path id="Shape" d="m52.383 16.088c-.017-.007-.029-.023-.046-.029-.137-.049-13.685-4.99-18.437-14.506-.1974756-.41147549-.6484969-.6370337-1.0961777-.54820441-.4476807.08882928-.7784127.4695038-.8038223.92520441l-.5 7.1h-1.766c-6.2.282-26.6 2.691-28.728 21.859-1.966 17.699 10.342 25.931 11.443 26.628 1.2520243 1.133841 2.5963408 2.1613952 4.019 3.072.371797.2216426.8439859.1789203 1.1699636-.105855.3259778-.2847753.4317338-.7469475.2620364-1.145145-.077-.182-7.631-18.252.844-27.669 1.2000001-1.307483 2.6414453-2.370655 4.245-3.131l-1.827 2.922c-.2491038.3948689-.1918237.9095602.138 1.24l4 4c.1959368.1959652.4644066.3018375.741361.2923593.2769545-.0094783.537558-.1334572.719639-.3423593.139-.159 13.767-15.632 29.171-14.65.4159878.0283983.8059374-.2042922.9784751-.583875.1725376-.3795827.0914471-.8263824-.2034751-1.121125-3.954-3.956-4.05-4.095-4.324-4.207zm-49.389 15.022c.631-5.7 4.51-19.067 26.786-20.08h2.65c.5257052.0013266.9626765-.4046197 1-.929l.346-4.887c3.78 5.324 9.751 8.935 13.747 10.916-8.454.971-15.812 5.821-20.48 9.7l2.3-3.676c.1922934-.3076622.2028629-.6953423.0276184-1.0130248-.1752444-.3176825-.508809-.5155266-.8716184-.5169752-18.799-.059-23.115 15.249-17.499 33.263-3.556-3.202-9.375-10.45-8.006-22.777zm11.927 25.88c-.322-.261-.671-.557-1.038-.876-.806-2.107-7.133-19.563.86-28.445 2.725-3.027 6.727-4.706 11.914-5l-1.875 3c-12.996 3.982-14.099 18.148-9.861 31.321zm11.063-22.44-2.562-2.561c1.485-1.624 13.883-14.643 28.151-14l1.989 1.99c-13.223.54-24.645 11.514-27.578 14.571z" transform="translate(0 -1)"/></svg>