<?xml version="1.0" encoding="iso-8859-1"?>
<!-- Generator: Adobe Illustrator 16.0.0, SVG Export Plug-In . SVG Version: 6.00 Build 0)  -->
<!DOCTYPE svg PUBLIC "-//W3C//DTD SVG 1.1//EN" "http://www.w3.org/Graphics/SVG/1.1/DTD/svg11.dtd">
<svg version="1.1" id="Capa_1" xmlns="http://www.w3.org/2000/svg" xmlns:xlink="http://www.w3.org/1999/xlink" x="0px" y="0px"
	 width="96.25px" height="96.25px" viewBox="0 0 96.25 96.25" style="enable-background:new 0 0 96.25 96.25;" xml:space="preserve"
	>
<g>
	<path d="M82.154,14.096c-18.793-18.794-49.266-18.794-68.059,0c-18.794,18.793-18.794,49.266,0,68.059
		c18.793,18.794,49.266,18.794,68.059,0C100.949,63.36,100.949,32.889,82.154,14.096z M79.016,66.098
		c0.597,0.597,0.597,1.562,0,2.159L68.259,79.015c-0.597,0.597-1.563,0.597-2.16,0L48.125,61.041L30.152,79.015
		c-0.597,0.597-1.563,0.597-2.16,0L17.235,68.257c-0.597-0.597-0.597-1.562,0-2.159l17.973-17.973L17.235,30.151
		c-0.597-0.597-0.597-1.563,0-2.16l10.757-10.757c0.597-0.597,1.563-0.597,2.16,0l17.973,17.973l17.973-17.973
		c0.597-0.597,1.563-0.597,2.16,0l10.757,10.757c0.597,0.597,0.597,1.563,0,2.16L61.043,48.125L79.016,66.098z"/>
</g>
<g>
</g>
<g>
</g>
<g>
</g>
<g>
</g>
<g>
</g>
<g>
</g>
<g>
</g>
<g>
</g>
<g>
</g>
<g>
</g>
<g>
</g>
<g>
</g>
<g>
</g>
<g>
</g>
<g>
</g>
</svg>
