<?xml version="1.0" encoding="iso-8859-1"?>
<!-- Generator: Adobe Illustrator 19.0.0, SVG Export Plug-In . SVG Version: 6.00 Build 0)  -->
<svg version="1.1" id="Layer_1" xmlns="http://www.w3.org/2000/svg" xmlns:xlink="http://www.w3.org/1999/xlink" x="0px" y="0px"
	 viewBox="0 0 480 480" style="enable-background:new 0 0 480 480;" xml:space="preserve">
<g>
	<g>
		<g>
			<path d="M207.851,363.631c4.653,3.443,16.876,21.809,26.726,40.252c1.745,3.267,5.143,5.289,8.819,5.289
				c0.165,0,0.331-0.004,0.497-0.012c3.865-0.192,7.272-2.596,8.749-6.172c7.463-18.083,17.483-36.245,21.893-39.793
				c86.214-16.475,148.685-91.999,148.685-179.962C423.22,82.198,341.03,0,240.006,0C138.975,0,56.78,82.198,56.78,183.233
				c0,43.474,15.506,85.625,43.661,118.689C128.045,334.339,166.153,356.225,207.851,363.631z M240.006,20
				c89.997,0,163.213,73.226,163.213,163.233c0,78.661-56.066,146.153-133.307,160.481c-5.836,1.079-12.913,5.309-25.082,28.752
				c-0.844,1.626-1.659,3.243-2.439,4.822c-1.076-1.779-2.206-3.612-3.371-5.456c-13.619-21.554-20.559-26.677-26.775-27.737
				C133.751,330.619,76.78,262.967,76.78,183.233C76.78,93.226,150.003,20,240.006,20z"/>
			<path d="M321.907,371.266c-5.384-1.202-10.736,2.183-11.943,7.573c-1.207,5.39,2.183,10.737,7.572,11.944
				c38.87,8.705,56.574,22.033,56.574,30.732c0,5.956-9.234,16.028-35.261,24.814C312.732,455.145,277.808,460,240.508,460
				c-37.315,0-72.251-4.855-98.373-13.672c-26.029-8.785-35.265-18.857-35.265-24.814c0-8.021,15.829-20.608,50.583-29.29
				c5.358-1.338,8.617-6.767,7.278-12.126c-1.338-5.359-6.773-8.619-12.126-7.278c-42.39,10.59-65.735,27.883-65.735,48.694
				c0,12.44,8.478,30.13,48.869,43.763C163.867,474.772,201.075,480,240.508,480c39.418,0,76.615-5.228,104.738-14.723
				c40.387-13.633,48.864-31.323,48.864-43.763C394.11,399.539,368.468,381.693,321.907,371.266z"/>
			<path d="M170.624,280.382h46.577c5.523,0,10-4.477,10-10v-37.953l26.593,0.103v37.85c0,5.523,4.478,10,10,10h46.584
				c5.523,0,10-4.477,10-10V107.346c0-5.523-4.477-10-10-10h-46.584c-5.522,0-10,4.477-10,10v47.641l-26.593-0.102v-47.539
				c0-5.523-4.477-10-10-10h-46.577c-5.523,0-10,4.477-10,10v163.036C160.624,275.905,165.102,280.382,170.624,280.382z
				 M180.624,117.346L180.624,117.346h26.577v47.5c0,5.508,4.454,9.979,9.961,10l46.593,0.18c2.694,0.017,5.212-1.039,7.096-2.915
				c1.884-1.876,2.942-4.426,2.942-7.085v-47.68h26.584v143.036h-26.584V222.57c0-5.508-4.454-9.979-9.962-10l-46.592-0.18
				c-0.013,0-0.026,0-0.038,0c-2.645,0-5.183,1.048-7.058,2.916c-1.883,1.876-2.942,4.426-2.942,7.084v37.991h-26.577V117.346z"/>
		</g>
	</g>
</g>
<g>
</g>
<g>
</g>
<g>
</g>
<g>
</g>
<g>
</g>
<g>
</g>
<g>
</g>
<g>
</g>
<g>
</g>
<g>
</g>
<g>
</g>
<g>
</g>
<g>
</g>
<g>
</g>
<g>
</g>
</svg>
