<?xml version="1.0" encoding="iso-8859-1"?>
<!-- Generator: Adobe Illustrator 19.0.0, SVG Export Plug-In . SVG Version: 6.00 Build 0)  -->
<svg version="1.1" id="Layer_1" xmlns="http://www.w3.org/2000/svg" xmlns:xlink="http://www.w3.org/1999/xlink" x="0px" y="0px"
	 viewBox="0 0 297 297" style="enable-background:new 0 0 297 297;" xml:space="preserve">
<g>
	<g>
		<g>
			<path d="M81.127,119.319c-16.091,0-29.181,13.091-29.181,29.181c0,16.09,13.091,29.181,29.181,29.181
				c16.09,0,29.181-13.091,29.181-29.181C110.308,132.41,97.218,119.319,81.127,119.319z M81.127,156.805
				c-4.579,0-8.305-3.726-8.305-8.305s3.726-8.305,8.305-8.305c4.579,0,8.305,3.726,8.305,8.305S85.706,156.805,81.127,156.805z"/>
			<path d="M148.5,119.319c-16.091,0-29.181,13.091-29.181,29.181c0,16.09,13.091,29.181,29.181,29.181
				c16.09,0,29.181-13.091,29.181-29.181C177.681,132.41,164.591,119.319,148.5,119.319z M148.5,156.805
				c-4.579,0-8.305-3.726-8.305-8.305s3.726-8.305,8.305-8.305s8.305,3.726,8.305,8.305S153.079,156.805,148.5,156.805z"/>
			<path d="M148.5,0C66.616,0,0,66.616,0,148.5S66.616,297,148.5,297S297,230.384,297,148.5S230.384,0,148.5,0z M148.5,276.123
				c-70.372,0-127.623-57.252-127.623-127.623S78.128,20.877,148.5,20.877S276.123,78.128,276.123,148.5
				S218.872,276.123,148.5,276.123z"/>
			<path d="M215.873,119.319c-16.091,0-29.181,13.091-29.181,29.181c0,16.09,13.091,29.181,29.181,29.181
				c16.09,0,29.181-13.091,29.181-29.181C245.054,132.41,231.964,119.319,215.873,119.319z M215.873,156.805
				c-4.579,0-8.305-3.726-8.305-8.305s3.726-8.305,8.305-8.305s8.305,3.726,8.305,8.305S220.452,156.805,215.873,156.805z"/>
		</g>
	</g>
</g>
<g>
</g>
<g>
</g>
<g>
</g>
<g>
</g>
<g>
</g>
<g>
</g>
<g>
</g>
<g>
</g>
<g>
</g>
<g>
</g>
<g>
</g>
<g>
</g>
<g>
</g>
<g>
</g>
<g>
</g>
</svg>
