<?xml version="1.0" encoding="iso-8859-1"?>
<!-- Generator: Adobe Illustrator 18.1.1, SVG Export Plug-In . SVG Version: 6.00 Build 0)  -->
<svg version="1.1" id="Capa_1" xmlns="http://www.w3.org/2000/svg" xmlns:xlink="http://www.w3.org/1999/xlink" x="0px" y="0px"
	 viewBox="0 0 581.176 581.176" style="enable-background:new 0 0 581.176 581.176;" xml:space="preserve">
<g>
	<g>
		<path d="M200.433,304.9l90.155,183.821L380.743,304.9c45.501-29.543,75.65-80.759,75.65-139.095
			C456.393,74.245,382.172,0,290.588,0c-91.56,0-165.805,74.245-165.805,165.781C124.783,224.14,154.932,275.381,200.433,304.9z
			 M290.588,68.651c53.638,0,97.129,43.491,97.129,97.129s-43.491,97.105-97.129,97.105s-97.129-43.467-97.129-97.105
			S236.95,68.651,290.588,68.651z"/>
		<path d="M375.779,374.98l-24.724,50.441c99.115,9.081,150.864,38.624,150.864,50.078c0,13.222-69.257,50.78-201.257,52.645
			l-0.097,0.194h-19.954l-0.073-0.194c-132.024-1.865-201.305-39.399-201.305-52.645c0-11.454,51.773-41.021,150.888-50.078
			l-24.724-50.441c-96.427,11.745-178.978,44.194-178.978,100.544c0,72.574,136.94,105.653,264.169,105.653
			s264.169-33.079,264.169-105.653C554.757,419.174,472.206,386.725,375.779,374.98z"/>
	</g>
</g>
<g>
</g>
<g>
</g>
<g>
</g>
<g>
</g>
<g>
</g>
<g>
</g>
<g>
</g>
<g>
</g>
<g>
</g>
<g>
</g>
<g>
</g>
<g>
</g>
<g>
</g>
<g>
</g>
<g>
</g>
</svg>
