<?xml version="1.0" encoding="iso-8859-1"?>
<!-- Generator: Adobe Illustrator 19.0.0, SVG Export Plug-In . SVG Version: 6.00 Build 0)  -->
<svg version="1.1" id="Layer_1" xmlns="http://www.w3.org/2000/svg" xmlns:xlink="http://www.w3.org/1999/xlink" x="0px" y="0px"
	 viewBox="0 0 222.224 222.224" style="enable-background:new 0 0 222.224 222.224;" xml:space="preserve">
<g>
	<g>
		<g>
			<path d="M96.97,125.243L96.97,125.243c0.001,4.461,3.627,8.09,8.082,8.09h12.121c4.455,0,8.081-3.63,8.081-8.09V101.01H149.5
				c4.455,0,8.077-3.624,8.077-8.081V80.808c0-4.457-3.622-8.081-8.077-8.081h-24.246V44.454c0-4.461-3.626-8.091-8.081-8.091
				h-12.121c-4.455,0-8.081,3.63-8.081,8.091v28.273H72.724c-4.455,0-8.077,3.624-8.077,8.081v12.121
				c0,4.457,3.622,8.081,8.077,8.081H96.97V125.243z M72.728,92.929l-0.004-12.121h32.327V44.444l12.121,0.01v36.354h32.323
				l0.004,12.121h-32.327v32.323l-12.121-0.01V92.929H72.728z"/>
			<path d="M141.3,185.53c25.097-26.977,52.64-74.349,52.64-103.562C193.94,36.77,156.784,0,111.112,0S28.284,36.77,28.284,81.968
				c0,29.215,27.548,76.591,52.646,103.567c-13,3.633-20.322,9.482-20.322,16.487c0,13.263,25.406,20.202,50.505,20.202
				c25.099,0,50.505-6.939,50.505-20.202C161.617,195.037,154.296,189.166,141.3,185.53z M36.365,81.968
				c0-40.741,33.53-73.887,74.747-73.887s74.747,33.146,74.747,73.887c0,43.446-58.83,116.012-74.747,116.012
				S36.365,125.414,36.365,81.968z M111.112,214.143c-27.45,0-42.424-8.008-42.424-12.121c0-2.285,5.239-6.836,18.893-9.773
				c9.06,8.54,17.417,13.812,23.532,13.812c6.117,0,14.478-5.276,23.543-13.823c13.692,2.947,18.881,7.531,18.881,9.784
				C153.536,206.136,138.562,214.143,111.112,214.143z"/>
		</g>
	</g>
</g>
<g>
</g>
<g>
</g>
<g>
</g>
<g>
</g>
<g>
</g>
<g>
</g>
<g>
</g>
<g>
</g>
<g>
</g>
<g>
</g>
<g>
</g>
<g>
</g>
<g>
</g>
<g>
</g>
<g>
</g>
</svg>
