<svg height="491pt" viewBox="0 0 491.886 491" width="491pt" xmlns="http://www.w3.org/2000/svg"><path d="m83.390625 449.976562c1.511719 1.574219 3.597656 2.464844 5.78125 2.464844 2.179687 0 4.269531-.890625 5.777344-2.464844l57.5-60.054687c34.519531-35.914063 34.53125-94.621094.027343-130.867187-16.40625-17.480469-39.308593-27.398438-63.28125-27.40625-23.976562-.003907-46.882812 9.90625-63.296874 27.378906-34.523438 35.914062-34.535157 94.621094-.015626 130.882812zm-45.933594-179.890624c13.390625-14.3125 32.113281-22.4375 51.714844-22.4375 19.597656 0 38.324219 8.125 51.710937 22.4375 28.6875 30.136718 28.703126 78.917968.019532 108.761718l-51.730469 54.027344-51.714844-54.011719c-28.683593-30.136719-28.699219-78.921875 0-108.777343zm0 0"/><path d="m89.171875 371.265625c27.929687 0 50.574219-22.640625 50.574219-50.574219 0-27.929687-22.644532-50.574218-50.574219-50.574218-27.933594 0-50.574219 22.644531-50.574219 50.574218.03125 27.917969 22.65625 50.542969 50.574219 50.574219zm0-85.144531c19.09375 0 34.570313 15.476562 34.574219 34.570312 0 19.09375-15.480469 34.574219-34.574219 34.574219s-34.574219-15.480469-34.574219-34.574219c.023438-19.082031 15.488282-34.550781 34.574219-34.570312zm0 0"/><path d="m396.929688 218.769531c1.511718 1.574219 3.597656 2.464844 5.78125 2.464844 2.179687 0 4.269531-.890625 5.777343-2.464844l57.5-60.054687c34.519531-35.914063 34.53125-94.621094.027344-130.867188-16.40625-17.480468-39.308594-27.398437-63.28125-27.40625-23.976563-.003906-46.882813 9.902344-63.296875 27.378906-34.519531 35.914063-34.53125 94.621094-.011719 130.882813zm-45.933594-179.890625c13.390625-14.3125 32.113281-22.4375 51.714844-22.4375 19.597656 0 38.324218 8.125 51.710937 22.4375 28.6875 30.136719 28.703125 78.921875.019531 108.761719l-51.730468 54.027344-51.714844-54.011719c-28.6875-30.132812-28.699219-78.917969 0-108.777344zm0 0"/><path d="m402.710938 140.058594c27.929687 0 50.574218-22.640625 50.574218-50.570313.003906-27.929687-22.640625-50.574219-50.570312-50.574219-27.929688 0-50.574219 22.640626-50.574219 50.570313.03125 27.917969 22.652344 50.542969 50.570313 50.574219zm0-85.144532c19.09375-.003906 34.574218 15.476563 34.574218 34.570313.003906 19.09375-15.476562 34.574219-34.570312 34.574219s-34.574219-15.476563-34.574219-34.574219c.019531-19.082031 15.484375-34.550781 34.570313-34.570313zm0 0"/><path d="m87.941406 473.941406c.011719 9.9375 8.0625 17.988282 18 18h76c54.035156 0 98-44.460937 98-98.5v-73c0-34.1875 27.8125-61.5 62-61.5h41c9.941406 0 18-8.058594 18-18s-8.058594-18-18-18h-41c-54.039062 0-98 43.464844-98 97.5v73c0 34.1875-27.8125 62.5-62 62.5h-76c-9.9375.011719-17.988281 8.066406-18 18zm172-80.5v-73c0-45.214844 36.785156-81.5 82-81.5h41c1.105469 0 2 .898438 2 2 0 1.105469-.894531 2-2 2h-41c-43.011718 0-78 34.492188-78 77.5v73c0 45.214844-36.785156 82.5-82 82.5h-76c-1.105468 0-2-.894531-2-2 0-1.101562.894532-2 2-2h76c43.007813 0 78-35.488281 78-78.5zm0 0"/></svg>