<?xml version="1.0" encoding="utf-8"?>
<!-- Svg Vector Icons : http://www.onlinewebfonts.com/icon -->
<!DOCTYPE svg PUBLIC "-//W3C//DTD SVG 1.1//EN" "http://www.w3.org/Graphics/SVG/1.1/DTD/svg11.dtd">
<svg version="1.1" xmlns="http://www.w3.org/2000/svg" xmlns:xlink="http://www.w3.org/1999/xlink" x="0px" y="0px" viewBox="0 0 1000 1000" enable-background="new 0 0 1000 1000" xml:space="preserve">
<metadata> Svg Vector Icons : http://www.onlinewebfonts.com/icon </metadata>
<g><path d="M500,71.2c-270.6,0-490,164.5-490,367.5c0,126.4,74.9,236.6,204.5,302.8c0,0.7-0.3,1.3-0.3,2.1c0,55-30.7,115.3-48.8,146.4h0c-1.4,3.4-2.3,7-2.3,10.9c0,15.4,12.4,27.8,27.8,27.8c2.3,0,6-0.5,7.4-0.5c0.3,0,0.5,0,0.5,0.1c95.7-15.6,200.9-100.2,221.9-125.7c21.5,3.2,36.1,3.7,54,3.7c7.6,0,15.8-0.1,25.4-0.1c270.6,0,490-164.5,490-367.5C990,235.7,770.6,71.2,500,71.2z M500,745l-14.5,0.1l-10.9,0.1c-16.8,0-27.8-0.4-45-3l-34.4-4.9l-22,26.7c-10.2,12.3-61.8,54.7-118.8,82c11.5-30.7,20.1-64.1,20.9-97.3l0.3-1.8V704l-33.4-17c-108.7-55.7-171-146.1-171-248.2c0-168.8,192.4-306.2,428.7-306.2c236.4,0,428.7,137.4,428.7,306.2C928.7,607.6,736.4,745,500,745z"/></g>
</svg>