<svg height="512pt" viewBox="0 0 512 512" width="512pt" xmlns="http://www.w3.org/2000/svg"><path d="m74.667969 5.332031c-39.105469 0-70.933594 31.832031-70.933594 70.933594 0 35.714844 56.191406 118.082031 62.589844 127.359375 1.898437 2.730469 5.015625 4.375 8.34375 4.375s6.441406-1.644531 8.339843-4.375c6.398438-9.277344 62.59375-91.644531 62.59375-127.359375 0-39.101563-31.832031-70.933594-70.933593-70.933594zm0 101.335938c-16.769531 0-30.402344-13.632813-30.402344-30.402344 0-16.765625 13.632813-30.398437 30.402344-30.398437 16.765625 0 30.398437 13.632812 30.398437 30.398437 0 16.769531-13.632812 30.402344-30.398437 30.402344zm0 0" fill="#ffc107"/><path d="m416 220.800781c-50.28125 0-91.199219 40.917969-91.199219 91.199219 0 46.1875 74.027344 173.226562 82.472657 187.542969 1.816406 3.089843 5.140624 4.992187 8.726562 4.992187s6.910156-1.902344 8.726562-4.992187c8.445313-14.335938 82.472657-141.355469 82.472657-187.542969 0-50.28125-40.917969-91.199219-91.199219-91.199219zm0 141.867188c-27.925781 0-50.667969-22.722657-50.667969-50.667969s22.742188-50.667969 50.667969-50.667969 50.667969 22.722657 50.667969 50.667969-22.742188 50.667969-50.667969 50.667969zm0 0" fill="#ffa000"/><path d="m74.667969 106.667969c-17.644531 0-32-14.359375-32-32 0-17.644531 14.355469-32 32-32 17.640625 0 32 14.355469 32 32 0 17.640625-14.359375 32-32 32zm0-42.667969c-5.867188 0-10.667969 4.777344-10.667969 10.667969 0 5.886719 4.800781 10.664062 10.667969 10.664062 5.867187 0 10.664062-4.777343 10.664062-10.664062 0-5.890625-4.796875-10.667969-10.664062-10.667969zm0 0"/><path d="m74.667969 213.332031c-3.5 0-6.785157-1.726562-8.769531-4.605469-6.761719-9.75-65.898438-96.46875-65.898438-134.058593 0-41.175781 33.492188-74.667969 74.667969-74.667969 41.171875 0 74.664062 33.492188 74.664062 74.667969 0 37.589843-59.132812 124.308593-65.898437 134.058593-1.984375 2.878907-5.269532 4.605469-8.765625 4.605469zm0-192c-29.421875 0-53.335938 23.9375-53.335938 53.335938 0 20.628906 29.824219 73 53.335938 108.882812 23.507812-35.882812 53.332031-88.253906 53.332031-108.882812 0-29.398438-23.914062-53.335938-53.332031-53.335938zm0 0"/><path d="m416 362.667969c-29.417969 0-53.332031-23.9375-53.332031-53.335938 0-29.394531 23.914062-53.332031 53.332031-53.332031s53.332031 23.9375 53.332031 53.332031c0 29.398438-23.914062 53.335938-53.332031 53.335938zm0-85.335938c-17.644531 0-32 14.359375-32 32 0 17.644531 14.355469 32 32 32s32-14.355469 32-32c0-17.640625-14.355469-32-32-32zm0 0"/><path d="m416 512c-3.777344 0-7.273438-2.003906-9.195312-5.246094-8.894532-15.085937-86.804688-148.800781-86.804688-197.421875 0-52.925781 43.070312-96 96-96s96 43.074219 96 96c0 48.621094-77.910156 182.335938-86.804688 197.421875-1.921874 3.242188-5.417968 5.246094-9.195312 5.246094zm0-277.332031c-41.171875 0-74.667969 33.492187-74.667969 74.664062 0 32.171875 47.617188 122.925781 74.667969 170.648438 27.050781-47.722657 74.667969-138.476563 74.667969-170.648438 0-41.171875-33.496094-74.664062-74.667969-74.664062zm0 0"/><path d="m373.332031 512c-16.234375 0-31.144531-1.34375-44.328125-4.011719-5.78125-1.171875-9.496094-6.804687-8.34375-12.5625 1.175782-5.78125 6.742188-9.496093 12.585938-8.34375 11.777344 2.367188 25.28125 3.585938 40.085937 3.585938 5.890625 0 10.667969 4.777343 10.667969 10.664062 0 5.890625-4.777344 10.667969-10.667969 10.667969zm-81.46875-18.902344c-1.984375 0-3.96875-.53125-5.761719-1.683594-13.546874-8.660156-24.105468-19.839843-32.277343-34.199218-2.921875-5.117188-1.132813-11.625 4.011719-14.546875 5.117187-2.945313 11.625-1.132813 14.546874 4.007812 6.402344 11.265625 14.65625 20.011719 25.238282 26.753907 4.949218 3.15625 6.421875 9.769531 3.242187 14.71875-2.046875 3.199218-5.503906 4.949218-9 4.949218zm-42.882812-70.503906c-4.949219 0-9.386719-3.5-10.429688-8.535156-3.09375-15.210938-4.628906-31.316406-5.613281-43.625-.46875-5.867188 3.90625-11.007813 9.773438-11.5 5.78125-.320313 11.027343 3.902344 11.476562 9.769531.960938 11.734375 2.386719 26.988281 5.269531 41.089844 1.171875 5.78125-2.5625 11.414062-8.34375 12.5625-.703125.171875-1.429687.238281-2.132812.238281zm-8.488281-85.015625c-5.484376 0-10.15625-4.203125-10.605469-9.769531-1.429688-17.109375-3.199219-29.695313-5.714844-40.8125-1.324219-5.757813 2.28125-11.453125 8.042969-12.757813 5.800781-1.300781 11.476562 2.328125 12.753906 8.042969 2.753906 12.117188 4.652344 25.621094 6.167969 43.734375.488281 5.867187-3.863281 11.03125-9.730469 11.519531-.296875.023438-.59375.042969-.914062.042969zm-21.503907-81.621094c-3.480469 0-6.914062-1.726562-8.960937-4.886719-6.828125-10.558593-15.617188-18.601562-26.902344-24.59375-5.183594-2.773437-7.167969-9.238281-4.394531-14.445312 2.773437-5.203125 9.28125-7.101562 14.441406-4.394531 14.335937 7.660156 26.050781 18.367187 34.773437 31.851562 3.179688 4.925781 1.792969 11.542969-3.15625 14.742188-1.8125 1.171875-3.820312 1.726562-5.800781 1.726562zm-71.0625-40.617187c-.511719 0-1.023437-.023438-1.535156-.109375-8.875-1.257813-18.519531-1.789063-29.058594-1.898438-5.886719 0-10.664062-4.777343-10.664062-10.664062 0-5.976563 4.90625-10.925781 10.921875-10.667969 11.328125 0 22.035156.703125 31.828125 2.113281 5.824219.851563 9.878906 6.25 9.046875 12.074219-.769532 5.332031-5.335938 9.152344-10.539063 9.152344zm0 0"/></svg>