<svg xmlns="http://www.w3.org/2000/svg" xmlns:xlink="http://www.w3.org/1999/xlink" version="1.1" style="enable-background:new 0 0 290 290;" xml:space="preserve" width="290" height="290"><rect id="backgroundrect" width="100%" height="100%" x="0" y="0" fill="none" stroke="none"/>
















<g class="currentLayer" style=""><title>Layer 1</title><g id="svg_1" class="" transform="rotate(-89.99581909179688 145,145) ">
	<path d="M255,110c-19.299,0-35,15.701-35,35s15.701,35,35,35s35-15.701,35-35S274.299,110,255,110z" id="svg_2"/>
	<path d="M35,110c-19.299,0-35,15.701-35,35s15.701,35,35,35s35-15.701,35-35S54.299,110,35,110z" id="svg_3"/>
	<path d="M145,110c-19.299,0-35,15.701-35,35s15.701,35,35,35s35-15.701,35-35S164.299,110,145,110z" id="svg_4"/>
</g><g id="svg_5">
</g><g id="svg_6">
</g><g id="svg_7">
</g><g id="svg_8">
</g><g id="svg_9">
</g><g id="svg_10">
</g><g id="svg_11">
</g><g id="svg_12">
</g><g id="svg_13">
</g><g id="svg_14">
</g><g id="svg_15">
</g><g id="svg_16">
</g><g id="svg_17">
</g><g id="svg_18">
</g><g id="svg_19">
</g></g></svg>