<?xml version="1.0" encoding="utf-8"?>
<!-- Svg Vector Icons : http://www.onlinewebfonts.com/icon -->
<!DOCTYPE svg PUBLIC "-//W3C//DTD SVG 1.1//EN" "http://www.w3.org/Graphics/SVG/1.1/DTD/svg11.dtd">
<svg version="1.1" xmlns="http://www.w3.org/2000/svg" xmlns:xlink="http://www.w3.org/1999/xlink" x="0px" y="0px" viewBox="0 0 1000 1000" enable-background="new 0 0 1000 1000" xml:space="preserve">
<metadata> Svg Vector Icons : http://www.onlinewebfonts.com/icon </metadata>
<g><g><path d="M512.4,10.2c-199-6.7-362.5,152.6-362.5,350.1c0,224.1,215.1,386.8,335.7,620.8c6.1,11.9,23.2,11.9,29.4,0C624,770.6,810.4,629.5,845,426.7C880.7,216.8,725.1,17.4,512.4,10.2z M500.2,543.8c-101.3,0-183.5-82.2-183.5-183.5c0-101.3,82.2-183.5,183.5-183.5c101.3,0,183.5,82.2,183.5,183.5C683.7,461.7,601.6,543.8,500.2,543.8z"/></g><g></g><g></g><g></g><g></g><g></g><g></g><g></g><g></g><g></g><g></g><g></g><g></g><g></g><g></g><g></g></g>
</svg>