<svg height="485.98pt" viewBox="0 0 485.98 485.98" width="485.98pt" xmlns="http://www.w3.org/2000/svg"><path d="m242.988281 159.988281c39.484375.097657 73.40625 28.058594 81.039063 66.796875 7.628906 38.738282-13.152344 77.476563-49.648438 92.539063-36.496094 15.066406-78.550781 2.265625-100.464844-30.578125-21.917968-32.839844-17.59375-76.589844 10.324219-104.507813 15.578125-15.574219 36.722657-24.300781 58.75-24.25zm0 0" fill="#00acea"/><g fill="#083863"><path d="m242.988281 149.988281c-44.242187.105469-82.257812 31.433594-90.8125 74.84375-8.554687 43.40625 14.730469 86.816407 55.628907 103.699219 40.894531 16.882812 88.019531 2.542969 112.578124-34.257812 24.558594-36.800782 19.71875-85.824219-11.566406-117.109376-17.453125-17.453124-41.144531-27.230468-65.828125-27.175781zm51.679688 144.683594c-24.671875 24.808594-63.441407 28.726563-92.574219 9.347656-29.132812-19.378906-40.507812-56.644531-27.164062-88.988281 13.347656-32.347656 47.691406-50.75 82.011718-43.945312 34.320313 6.800781 59.050782 36.914062 59.046875 71.902343.085938 19.386719-7.59375 37.996094-21.320312 51.683594zm0 0"/><path d="m475.980469 232.988281h-28.058594c-5.015625-105.507812-89.421875-189.914062-194.933594-194.929687v-28.058594c0-5.523438-4.476562-10-10-10-5.519531 0-10 4.476562-10 10v28.058594c-105.507812 5.015625-189.914062 89.421875-194.929687 194.929687h-28.058594c-5.523438 0-10 4.480469-10 10 0 5.523438 4.476562 10 10 10h28.058594c5.011718 105.511719 89.421875 189.917969 194.929687 194.933594v28.058594c0 5.523437 4.480469 10 10 10 5.523438 0 10-4.476563 10-10v-28.058594c105.511719-5.015625 189.917969-89.421875 194.933594-194.933594h28.058594c5.523437 0 10-4.476562 10-10 0-5.519531-4.476563-10-10-10zm-101.984375 141.011719c-32.230469 32.382812-75.375 51.59375-121.007813 53.890625v-43.0625c0-5.519531-4.476562-10-10-10-5.519531 0-10 4.480469-10 10v43.0625c-94.460937-4.96875-169.929687-80.441406-174.898437-174.902344h43.058594c5.523437 0 10-4.476562 10-10 0-5.519531-4.476563-10-10-10h-43.058594c4.96875-94.457031 80.441406-169.929687 174.898437-174.898437v43.058594c0 5.523437 4.480469 10 10 10 5.523438 0 10-4.476563 10-10v-43.058594c94.460938 4.96875 169.933594 80.441406 174.902344 174.898437h-43.0625c-5.519531 0-10 4.480469-10 10 0 5.523438 4.480469 10 10 10h43.0625c-2.296875 45.636719-21.507813 88.777344-53.894531 121.011719zm0 0"/></g></svg>