<svg id="Layer_1" data-name="Layer 1" xmlns="http://www.w3.org/2000/svg" viewBox="0 0 490 492.58"><title>comment</title><path d="M494.25,197.65C472.8,105.63,396,32.14,303.11,14.8,221.57-.46,141.49,23.88,83.45,81.49s-83,137.45-68.36,219c17.26,96.42,93.64,174.61,190.11,194.56a245.27,245.27,0,0,0,143.7-13.24c5.14-2.11,13-4.11,21.36-1.55l68.53,21a36.75,36.75,0,0,0,10.77,1.63,36.41,36.41,0,0,0,35.62-43.12l-14-74.32c-1.51-8,1-15.25,3.34-19.9h0C500.93,313.6,507.74,255.53,494.25,197.65ZM449,352.64h0c-6.26,12.35-8.31,25.54-5.94,38.13l14,74.32a7.66,7.66,0,0,1-2.45,7.21,7.44,7.44,0,0,1-7.45,1.64l-68.52-21a56.53,56.53,0,0,0-16.6-2.48A63.14,63.14,0,0,0,338,455.39a216.38,216.38,0,0,1-127,11.66C125.87,449.45,58.47,380.5,43.25,295.48c-12.92-72.2,9.07-142.79,60.34-193.68S225.72,29.45,297.86,42.92C379.75,58.22,447.48,123,466.39,204.15,478.32,255.39,472.33,306.73,449,352.64Z" transform="translate(-11 -10.34)"/></svg>