<svg id="Layer_1" data-name="Layer 1" xmlns="http://www.w3.org/2000/svg" viewBox="0 0 500 429.85"><title>like</title><path d="M256,470.58a25.65,25.65,0,0,1-15.76-5.6L64.66,323c-24.45-19.85-42-45.17-50.91-73.21-19.13-59.79-2-126.14,43.67-169C100.13,40.77,159,30,214.94,51.91c16.51,6.46,30.46,18.6,41.07,30.45,13.13-14.67,26.92-24.89,41.13-30.45,55.93-22,114.78-11.16,157.51,28.85,45.67,42.86,62.81,109.21,43.66,169.05h0c-9,28.14-26.61,53.44-50.88,73.14L271.86,464.89A25.07,25.07,0,0,1,256,470.58Zm-98.39-404c-30.35,0-59.36,11.26-82.53,33C36.62,135.65,22.2,191.54,38.33,242c7.35,23.26,22.06,44.33,42.57,61L256.32,444.83,431.2,302.92c20.33-16.52,35.06-37.6,42.54-61h0c16.13-50.41,1.72-106.3-36.73-142.37-35.27-33-84-41.9-130.45-23.66-13.29,5.2-27.2,17.15-40.26,34.56l-10.38,13.85-10.3-13.91c-9-12.08-23.18-27.88-40.08-34.5A131.48,131.48,0,0,0,157.59,66.62Z" transform="translate(-6.04 -40.73)"/></svg>