<svg id="Capa_1" xmlns="http://www.w3.org/2000/svg" viewBox="0 0 64.75 63.14"><defs><style>.cls-1{stroke:#000;stroke-miterlimit:10;stroke-width:0.75px;}</style></defs><title>shopping-basket</title><path class="cls-1" d="M64,29.7a6.51,6.51,0,0,0-6.5-6.5H52.24L40.46,2.81a4,4,0,0,0-7.32,1,4,4,0,0,0,.39,3L43,23.2H21L30.46,6.81A4,4,0,0,0,29,1.34a4,4,0,0,0-5.46,1.47L11.76,23.2H6.5A6.49,6.49,0,0,0,4.07,35.72L7.5,58.93a5,5,0,0,0,4.95,4.27H50.67a5,5,0,0,0,4.92-4.09l4.33-23.38A6.51,6.51,0,0,0,64,29.7ZM35.07,4.29A2,2,0,0,1,36,3.07a2,2,0,0,1,1-.27,2.32,2.32,0,0,1,.52.07,2,2,0,0,1,1.21.93l12,20.79a2,2,0,0,1,.2,1.52A2,2,0,0,1,50,27.32a2,2,0,0,1-1.52.2,2,2,0,0,1-1.21-.93l-12-20.78A2,2,0,0,1,35.07,4.29Zm-21.8,20.3,12-20.78a2,2,0,0,1,1.21-.94A2.32,2.32,0,0,1,27,2.8a2.08,2.08,0,0,1,1,.27,2,2,0,0,1,.93,1.22,2,2,0,0,1-.2,1.52l-12,20.78a2,2,0,0,1-1.21.93,2,2,0,0,1-1.52-.2,2,2,0,0,1-.93-1.21A2,2,0,0,1,13.27,24.59ZM57.8,36.2,53.62,58.74a3,3,0,0,1-2.95,2.46H12.45a3,3,0,0,1-3-2.56L6.16,36.2H57.8Zm-.3-2H6.5a4.5,4.5,0,0,1,0-9H11a3.8,3.8,0,0,0,.11,1.42A3.9,3.9,0,0,0,13,29.05a3.94,3.94,0,0,0,2,.54,3.79,3.79,0,0,0,1-.14,4,4,0,0,0,2.43-1.86l1.38-2.39h24.3l1.39,2.39A3.93,3.93,0,0,0,48,29.45a3.67,3.67,0,0,0,1,.14,3.94,3.94,0,0,0,2-.54,3.9,3.9,0,0,0,1.86-2.43A3.8,3.8,0,0,0,53,25.2H57.5a4.5,4.5,0,0,1,0,9Z" transform="translate(0.38 -0.43)"/><path class="cls-1" d="M17,56.2a3,3,0,0,0,3-3v-10a3,3,0,0,0-6,0v10A3,3,0,0,0,17,56.2Zm-1-13a1,1,0,0,1,2,0v10a1,1,0,0,1-2,0Z" transform="translate(0.38 -0.43)"/><path class="cls-1" d="M27,56.2a3,3,0,0,0,3-3v-10a3,3,0,0,0-6,0v10A3,3,0,0,0,27,56.2Zm-1-13a1,1,0,0,1,2,0v10a1,1,0,0,1-2,0Z" transform="translate(0.38 -0.43)"/><path class="cls-1" d="M37,56.2a3,3,0,0,0,3-3v-10a3,3,0,0,0-6,0v10A3,3,0,0,0,37,56.2Zm-1-13a1,1,0,0,1,2,0v10a1,1,0,0,1-2,0Z" transform="translate(0.38 -0.43)"/><path class="cls-1" d="M47,56.2a3,3,0,0,0,3-3v-10a3,3,0,0,0-6,0v10A3,3,0,0,0,47,56.2Zm-1-13a1,1,0,0,1,2,0v10a1,1,0,0,1-2,0Z" transform="translate(0.38 -0.43)"/></svg>